<?xml version="1.0" encoding="UTF-8"?>
<svg width="18px" height="18px" viewBox="0 0 18 18" version="1.1" xmlns="http://www.w3.org/2000/svg" xmlns:xlink="http://www.w3.org/1999/xlink">
    <title>接收批次源</title>
    <g id="接收批次源" stroke="none" stroke-width="1" fill="none" fill-rule="evenodd">
        <g fill="#000000" fill-rule="nonzero" id="形状结合">
            <path d="M8.5,0 C13.1105914,0 16.863803,3.67087958 16.9963761,8.2493801 L17,8.5 L15.4545455,8.5 C15.4545455,4.6591106 12.3408894,1.54545455 8.5,1.54545455 C4.6591106,1.54545455 1.54545455,4.6591106 1.54545455,8.5 C1.54545455,12.2625039 4.53331942,15.3271546 8.26577245,15.4506753 L8.5,15.4545455 L8.5,17 C3.80557963,17 0,13.1944204 0,8.5 C0,3.80557963 3.80557963,0 8.5,0 Z M13.5689267,10 L13.6291111,13.3692782 L17,13.4157152 L16.9822025,14.7280719 L13.6539921,14.6829998 L13.7134843,17.9763444 L12.3941895,18 L12.3332307,14.6644386 L9,14.620972 L9.01779757,13.3086152 L12.3093865,13.3517482 L12.2496319,10.0236558 L13.5689267,10 Z M8.39443731,4 L8.39443731,6.68356471 L11,6.68356471 L11,9.36712943 L8,9.36712943 L8,12 L5,12 L5,9.31643528 L8,9.31643528 L8,6.68356471 L5.39443732,6.68356471 L5.39443732,4 L8.39443731,4 Z M6.954334,10.045666 L6.045666,10.045666 L6.045666,10.954334 L6.954334,10.954334 L6.954334,10.045666 Z M9.954334,7.045666 L9.045666,7.045666 L9.045666,7.95433401 L9.954334,7.95433401 L9.954334,7.045666 Z M6.954334,4.045666 L6.045666,4.045666 L6.045666,4.954334 L6.954334,4.954334 L6.954334,4.045666 Z"></path>
        </g>
    </g>
</svg>